<?xml version="1.0" encoding="UTF-8" standalone="no"?>
<svg
   xmlns:dc="http://purl.org/dc/elements/1.1/"
   xmlns:cc="http://creativecommons.org/ns#"
   xmlns:rdf="http://www.w3.org/1999/02/22-rdf-syntax-ns#"
   xmlns:svg="http://www.w3.org/2000/svg"
   xmlns="http://www.w3.org/2000/svg"
   xmlns:xlink="http://www.w3.org/1999/xlink"
   xmlns:sodipodi="http://sodipodi.sourceforge.net/DTD/sodipodi-0.dtd"
   xmlns:inkscape="http://www.inkscape.org/namespaces/inkscape"
   width="470"
   viewBox="-66.34757 -50 69.21944 10.309278"
   version="1.1"
   id="bannerPicture"
   height="70"
   style="shape-rendering:optimizeSpeed"
   sodipodi:docname="echiquierjs-capt.svg"
   inkscape:version="0.92.2 (5c3e80d, 2017-08-06)">
  <sodipodi:namedview
     pagecolor="#ffffff"
     bordercolor="#666666"
     borderopacity="1"
     objecttolerance="10"
     gridtolerance="10"
     guidetolerance="10"
     inkscape:pageopacity="0"
     inkscape:pageshadow="2"
     inkscape:window-width="1366"
     inkscape:window-height="711"
     id="namedview785"
     showgrid="false"
     fit-margin-top="0"
     fit-margin-left="0"
     fit-margin-right="0"
     fit-margin-bottom="0"
     inkscape:zoom="0.64"
     inkscape:cx="386.33221"
     inkscape:cy="19.701573"
     inkscape:window-x="0"
     inkscape:window-y="29"
     inkscape:window-maximized="1"
     inkscape:current-layer="svg8" />
  <defs
     id="defs2">
    <filter
       height="1.0682667"
       y="-0.034133334"
       width="1.0877714"
       x="-0.043885715"
       id="filter4559"
       style="color-interpolation-filters:sRGB">
      <feGaussianBlur
         id="feGaussianBlur4561"
         stdDeviation="0.1" />
    </filter>
    <linearGradient
       id="linearGradient4491">
      <stop
         id="stop4487"
         offset="0"
         style="stop-color:#aaf;stop-opacity:1;" />
      <stop
         id="stop4489"
         offset="1"
         style="stop-color:#fff;stop-opacity:1;" />
    </linearGradient>
    <linearGradient
       gradientUnits="userSpaceOnUse"
       y2="20"
       x2="0"
       y1="-4"
       x1="0"
       id="linearGradient4493"
       xlink:href="#linearGradient4491"
       gradientTransform="translate(30.932203,44.067797)" />
  </defs>
  <metadata
     id="metadata998">
    <rdf:rdf>
      <cc:work
         rdf:about="">
        <dc:format>image/svg+xml</dc:format>
        <dc:type
           rdf:resource="http://purl.org/dc/dcmitype/StillImage" />
        <dc:title />
      </cc:work>
    </rdf:rdf>
    <rdf:RDF>
      <cc:Work
         rdf:about="">
        <dc:format>image/svg+xml</dc:format>
        <dc:type
           rdf:resource="http://purl.org/dc/dcmitype/StillImage" />
        <dc:title></dc:title>
      </cc:Work>
    </rdf:RDF>
  </metadata>
  <g
     id="g5714"
     transform="translate(0.789735,-0.50251993)">
    <path
       id="path1986"
       d="m -51.487654,-48.675672 -0.319,1.614276 -1.758963,-0.289085 -0.257732,1.82541 1.789166,0.442976 -0.268662,3.045322 -1.627221,0.411911 -0.55142,1.93414 h 7.925834 l -0.581049,-1.93414 -1.732786,-0.626496 -0.09262,-2.806287 1.086443,-0.203941 0.165398,-2.033667 -1.594429,0.121387 -0.199052,-0.927087 z"
       style="fill:#d3bc5f;fill-opacity:1;stroke-width:1"
       inkscape:connector-curvature="0" />
    <path
       id="path1984"
       d="m -39.391307,-48.465977 -2.071349,3.527131 0.971673,2.902073 -1.477356,0.411911 -0.551133,1.93414 h 7.925833 l -0.581047,-1.93414 -2.060993,-0.990945 1.078676,-1.55387 -0.808576,-1.824835 -1.033228,1.693092 0.06702,-2.870144 z"
       style="fill:#2b2200;fill-opacity:1;stroke-width:1"
       inkscape:connector-curvature="0" />
    <path
       id="polygon171"
       d="m -62.402775,-48.99496 -0.703873,0.178629 -0.5612,1.425005 -1.370927,-1.481671 -0.572129,0.556309 0.537037,3.334695 0.608948,0.03049 -0.515464,1.485698 0.758815,1.485698 -1.588101,0.401843 -0.537901,1.887542 h 7.733972 l -0.566953,-1.887542 -1.691078,-0.61125 0.591978,-1.369201 -0.682299,-1.369201 0.600896,-0.0075 0.544228,-3.878636 -0.921046,0.0078 -0.921334,1.277729 z"
       style="fill:#2b2200;fill-opacity:1;stroke-width:1"
       inkscape:connector-curvature="0" />
    <path
       id="polygon351"
       d="m -27.429586,-48.465977 -1.724733,2.406169 -0.837053,2.877911 0.943483,0.801961 1.93414,-1.603921 -1.415225,1.947084 -1.477357,0.411911 -0.551131,1.93414 h 7.925832 l -0.581047,-1.93414 -2.060993,-0.990945 1.981314,-1.462399 -0.471741,-2.689214 -1.668355,-0.628509 z"
       style="fill:#d3bc5f;fill-opacity:1;stroke-width:1"
       inkscape:connector-curvature="0" />
    <path
       id="polygon419"
       d="m -16.734941,-48.525233 0.168274,6.48846 -1.477356,0.411911 -0.55142,1.93414 h 7.925832 l -0.58076,-1.93414 -1.517051,-0.626496 0.447291,-5.53232 -2.177489,0.387749 z"
       style="fill:#2b2200;fill-opacity:1;stroke-width:1"
       inkscape:connector-curvature="0" />
    <path
       id="polygon483"
       d="m -2.535899,-46.455611 -2.157354,1.116935 -0.321302,1.70431 0.917595,1.291248 -1.985342,0.718256 -0.551131,1.93414 h 7.925832 l -0.58104696,-1.93414 -2.26033304,-0.626496 1.19057304,-1.17245 -0.194449,-1.891281 z"
       style="fill:#d3bc5f;fill-opacity:1;stroke-width:1"
       inkscape:connector-curvature="0" />
  </g>
</svg>
