<?xml version="1.0" encoding="UTF-8" standalone="no"?>
<svg
   xmlns:dc="http://purl.org/dc/elements/1.1/"
   xmlns:cc="http://creativecommons.org/ns#"
   xmlns:rdf="http://www.w3.org/1999/02/22-rdf-syntax-ns#"
   xmlns:svg="http://www.w3.org/2000/svg"
   xmlns="http://www.w3.org/2000/svg"
   id="svg8"
   version="1.1"
   viewBox="0 0 266.7081 37.588379"
   height="37.588379mm"
   width="266.7081mm">
  <defs
     id="defs2" />
  <metadata
     id="metadata5">
    <rdf:RDF>
      <cc:Work
         rdf:about="">
        <dc:format>image/svg+xml</dc:format>
        <dc:type
           rdf:resource="http://purl.org/dc/dcmitype/StillImage" />
        <dc:title></dc:title>
      </cc:Work>
    </rdf:RDF>
  </metadata>
  <g
     transform="translate(301.86626,-152.33908)"
     id="layer1">
    <g
       transform="translate(5.4999999,-2.2927624)"
       id="g4972">
      <text
         xml:space="preserve"
         style="font-style:normal;font-variant:normal;font-weight:normal;font-stretch:normal;font-size:23.63411713px;line-height:1.25;font-family:Caladea;-inkscape-font-specification:Caladea;letter-spacing:0px;word-spacing:0px;fill:#000000;fill-opacity:1;stroke:none;stroke-width:0.59085298"
         x="-192.80058"
         y="180.1902"
         id="text817"
         transform="skewX(-31.219699)"><tspan
           id="tspan815"
           x="-192.80058"
           y="180.1902"
           style="font-style:normal;font-variant:normal;font-weight:normal;font-stretch:normal;font-family:'Grand Hotel';-inkscape-font-specification:'Grand Hotel';fill:#000000;stroke-width:0.59085298">Svg Chessboard </tspan></text>
      <g
         style="shape-rendering:optimizeSpeed"
         id="g857"
         transform="matrix(1.7965204,0,0,1.7965204,-49.898753,253.10955)">
        <g
           transform="translate(0.789735,-0.50251993)"
           id="g5714">
          <path
             style="fill:#d3bc5f;fill-opacity:1;stroke-width:1"
             d="m -51.487654,-48.675672 -0.319,1.614276 -1.758963,-0.289085 -0.257732,1.82541 1.789166,0.442976 -0.268662,3.045322 -1.627221,0.411911 -0.55142,1.93414 h 7.925834 l -0.581049,-1.93414 -1.732786,-0.626496 -0.09262,-2.806287 1.086443,-0.203941 0.165398,-2.033667 -1.594429,0.121387 -0.199052,-0.927087 z"
             id="path1986" />
          <path
             style="fill:#2b2200;fill-opacity:1;stroke-width:1"
             d="m -39.391307,-48.465977 -2.071349,3.527131 0.971673,2.902073 -1.477356,0.411911 -0.551133,1.93414 h 7.925833 l -0.581047,-1.93414 -2.060993,-0.990945 1.078676,-1.55387 -0.808576,-1.824835 -1.033228,1.693092 0.06702,-2.870144 z"
             id="path1984" />
          <path
             style="fill:#2b2200;fill-opacity:1;stroke-width:1"
             d="m -62.402775,-48.99496 -0.703873,0.178629 -0.5612,1.425005 -1.370927,-1.481671 -0.572129,0.556309 0.537037,3.334695 0.608948,0.03049 -0.515464,1.485698 0.758815,1.485698 -1.588101,0.401843 -0.537901,1.887542 h 7.733972 l -0.566953,-1.887542 -1.691078,-0.61125 0.591978,-1.369201 -0.682299,-1.369201 0.600896,-0.0075 0.544228,-3.878636 -0.921046,0.0078 -0.921334,1.277729 z"
             id="polygon171" />
          <path
             style="fill:#d3bc5f;fill-opacity:1;stroke-width:1"
             d="m -27.429586,-48.465977 -1.724733,2.406169 -0.837053,2.877911 0.943483,0.801961 1.93414,-1.603921 -1.415225,1.947084 -1.477357,0.411911 -0.551131,1.93414 h 7.925832 l -0.581047,-1.93414 -2.060993,-0.990945 1.981314,-1.462399 -0.471741,-2.689214 -1.668355,-0.628509 z"
             id="polygon351" />
          <path
             style="fill:#2b2200;fill-opacity:1;stroke-width:1"
             d="m -16.734941,-48.525233 0.168274,6.48846 -1.477356,0.411911 -0.55142,1.93414 h 7.925832 l -0.58076,-1.93414 -1.517051,-0.626496 0.447291,-5.53232 -2.177489,0.387749 z"
             id="polygon419" />
          <path
             style="fill:#d3bc5f;fill-opacity:1;stroke-width:1"
             d="m -2.535899,-46.455611 -2.157354,1.116935 -0.321302,1.70431 0.917595,1.291248 -1.985342,0.718256 -0.551131,1.93414 h 7.925832 l -0.58104696,-1.93414 -2.26033304,-0.626496 1.19057304,-1.17245 -0.194449,-1.891281 z"
             id="polygon483" />
        </g>
      </g>
    </g>
    <text
       id="text909"
       y="248.34361"
       x="-193.00896"
       style="font-style:normal;font-variant:normal;font-weight:normal;font-stretch:normal;font-size:10.58333302px;line-height:1.25;font-family:Caladea;-inkscape-font-specification:Caladea;letter-spacing:0px;word-spacing:0px;fill:#000000;fill-opacity:1;stroke:none;stroke-width:0.26458332"
       xml:space="preserve"><tspan
         style="stroke-width:0.26458332"
         y="257.90036"
         x="-193.00896"
         id="tspan907" /></text>
  </g>
</svg>
